<svg height="24" viewBox="0 0 24 24" width="24" xmlns="http://www.w3.org/2000/svg"><path d="m16.748832 2c1.2426407 0 2.25 1.00735931 2.25 2.25v15.5c0 1.2426407-1.0073593 2.25-2.25 2.25h-10.498832c-1.24264069 0-2.25-1.0073593-2.25-2.25v-15.5c0-1.24264069 1.00735931-2.25 2.25-2.25zm0 1.5h-10.498832c-.41421356 0-.75.33578644-.75.75v15.5c0 .4142136.33578644.75.75.75h10.498832c.4142136 0 .75-.3357864.75-.75v-15.5c0-.41421356-.3357864-.75-.75-.75zm3.251168 11.501939h.75c.3796958 0 .693491.2821539.7431534.6482295l.0068466.1017705v1.498061c0 .3796958-.2821539.693491-.6482294.7431534l-.1017706.0068466h-.75v-2.998061h.75zm0-4h.75c.3796958 0 .693491.2821539.7431534.6482295l.0068466.1017705v1.498061c0 .3796958-.2821539.693491-.6482294.7431534l-.1017706.0068466h-.75v-2.998061h.75zm0-3.99999995h.75c.3796958 0 .693491.28215388.7431534.64822944l.0068466.10177056v1.49806095c0 .37969577-.2821539.69349096-.6482294.74315338l-.1017706.00684662h-.75v-2.99806095h.75zm-4.751168-2.00193905c.4142136 0 .75.33578644.75.75v2.49850422c0 .41421356-.3357864.75-.75.75h-7.498832c-.41421356 0-.75-.33578644-.75-.75v-2.49850422c0-.41421356.33578644-.75.75-.75zm-.75 1.5h-5.998832v.99850422h5.998832z" fill="#212121"/></svg>