<svg width="1024" height="1024" viewBox="0 0 1024 1024" xmlns="http://www.w3.org/2000/svg">
  <path d="M 0,1018 0,1022 1,1021 1,1019 Z M 0,1013 0,1014 Z M 0,982 0,984 1,983 1,982 Z M 0,670 0,671 Z M 542,70 541,71 538,71 536,73 534,73 532,75 529,75 526,78 525,78 520,83 520,84 519,85 519,86 518,87 517,87 517,88 516,89 515,89 515,90 513,92 513,94 511,96 511,98 507,102 507,103 506,104 506,105 505,106 505,107 504,108 504,109 503,110 503,111 501,113 501,114 499,116 499,118 497,120 497,122 495,124 495,126 493,128 493,130 492,131 492,133 490,135 490,136 489,137 489,139 488,140 488,141 487,142 487,148 485,150 485,153 484,154 484,156 483,157 483,159 482,160 482,162 481,163 481,167 480,168 480,170 479,171 479,176 478,177 478,180 477,181 477,183 476,184 476,185 474,187 473,187 472,188 466,188 465,189 456,189 455,190 450,190 449,191 447,191 446,192 444,192 443,193 441,193 440,194 438,194 437,195 433,195 432,196 428,196 426,198 422,198 421,199 419,199 418,200 417,200 415,202 412,202 411,203 409,203 408,204 407,204 406,205 404,205 403,206 400,206 398,208 397,208 396,209 393,209 391,211 388,211 386,213 384,213 382,215 379,215 377,217 376,217 374,219 373,219 372,220 369,220 366,223 364,223 362,225 361,225 360,226 359,226 358,227 357,227 355,229 354,229 353,230 352,230 350,232 349,232 348,233 347,233 345,235 344,235 342,237 341,237 338,240 337,240 334,243 333,243 331,245 330,245 327,248 326,248 324,250 323,250 319,254 318,254 313,259 312,259 301,270 300,270 295,275 295,276 285,286 285,287 281,291 281,292 275,298 275,299 271,303 271,304 266,309 266,310 265,311 265,312 263,314 263,315 261,317 261,318 258,321 258,322 257,323 257,324 255,326 255,327 254,328 254,329 251,332 251,334 248,337 248,339 246,341 246,342 245,343 245,344 243,346 243,348 241,350 241,352 240,353 240,355 239,356 239,357 238,358 238,360 237,361 237,362 235,364 235,367 234,368 234,369 233,370 233,373 232,374 232,376 231,377 231,380 230,381 230,386 229,387 229,391 228,392 228,407 229,408 229,411 230,412 230,416 231,417 231,419 232,420 232,421 233,422 233,423 234,424 234,425 237,428 237,429 238,430 239,430 246,437 247,437 249,439 250,439 251,440 252,440 253,441 254,441 255,442 257,442 258,443 259,443 260,444 260,445 262,447 262,451 261,452 261,495 262,496 262,502 261,503 261,511 262,512 262,531 263,532 263,543 264,544 264,559 265,560 265,564 266,565 266,569 267,570 267,575 268,576 268,578 269,579 269,583 270,584 270,586 271,587 271,592 272,593 272,598 273,599 273,603 274,604 274,605 275,606 275,609 276,610 276,612 277,613 277,615 278,616 278,618 279,619 279,622 280,623 280,627 281,628 281,630 282,631 282,632 283,633 283,635 284,636 284,638 285,639 285,640 286,641 286,643 287,644 287,646 288,647 288,648 289,649 289,651 290,652 290,653 291,654 291,655 292,656 292,657 293,658 293,660 294,661 294,662 295,663 295,664 296,665 296,666 297,667 297,668 298,669 298,670 299,671 299,674 300,675 300,676 302,678 302,679 303,680 303,682 304,683 304,684 305,685 305,686 307,688 307,690 308,691 308,692 309,693 309,694 310,695 310,697 311,697 312,698 312,700 314,702 314,703 315,704 315,705 317,707 317,708 319,710 319,711 320,712 320,714 325,719 325,720 326,721 326,722 328,724 328,726 329,727 330,727 331,728 331,729 334,732 334,733 337,736 337,737 339,739 339,740 342,743 342,745 343,745 346,748 346,750 347,751 348,751 349,752 349,753 350,754 350,755 351,755 353,757 353,759 354,759 355,760 355,761 358,764 359,764 361,766 361,767 364,770 365,770 369,774 369,776 382,789 383,789 387,793 388,793 389,794 389,795 390,795 391,796 392,796 393,797 393,798 395,798 397,800 397,801 398,801 399,802 399,803 400,803 402,805 402,806 403,806 405,808 406,808 407,809 408,809 409,810 410,810 412,812 412,813 413,813 416,816 418,816 421,819 422,819 423,820 423,821 424,822 426,822 427,823 428,823 431,826 432,826 433,827 434,827 435,828 435,829 436,829 437,830 439,830 443,834 445,834 447,836 448,836 449,837 449,838 450,838 451,839 452,839 453,840 454,840 455,841 456,841 457,842 458,842 460,844 461,844 462,845 463,845 465,847 467,847 468,848 469,848 470,849 471,849 473,851 474,851 477,854 479,854 480,855 482,855 485,858 487,858 488,859 489,859 490,860 492,860 493,861 495,861 496,862 498,862 499,863 500,863 502,865 504,865 506,867 510,867 512,869 514,869 515,870 523,870 524,869 527,869 528,868 529,868 530,867 532,867 533,866 535,866 536,865 537,865 539,863 542,863 543,862 544,862 546,860 547,860 548,859 550,859 551,858 552,858 553,857 555,857 557,855 558,855 559,854 561,854 564,851 565,851 566,850 568,850 570,848 571,848 572,847 574,847 575,846 576,846 576,845 577,844 578,844 579,843 580,843 582,841 583,841 584,840 586,840 590,836 591,836 593,834 594,834 595,833 596,833 598,831 599,831 601,829 602,829 604,827 605,827 606,826 607,826 609,824 610,824 613,821 614,821 616,819 617,819 622,814 623,814 624,813 625,813 627,811 628,811 628,810 629,809 630,809 633,806 634,806 637,803 639,803 640,802 640,801 642,799 643,799 644,798 644,797 647,794 648,794 652,790 653,790 653,789 655,787 656,787 656,786 657,785 658,785 667,776 668,776 679,765 679,764 683,760 683,759 685,757 685,756 687,754 687,753 688,752 688,751 691,748 691,746 693,744 693,743 698,738 698,737 700,735 700,734 702,732 702,731 707,726 707,724 712,719 712,718 715,715 715,714 717,712 717,711 719,709 719,708 721,706 721,705 723,703 723,702 725,700 725,699 727,697 727,696 728,695 728,694 730,692 730,691 731,690 731,689 732,688 732,687 733,686 733,685 734,684 734,683 735,682 735,681 736,680 736,678 737,677 737,676 738,675 738,674 739,673 739,671 740,670 740,668 741,667 741,664 742,663 741,662 742,661 742,658 743,657 743,656 744,655 744,654 745,653 745,651 746,650 746,647 747,646 747,645 748,644 748,642 749,641 749,640 750,639 750,637 751,636 751,634 752,633 752,632 753,631 753,628 754,627 754,625 755,624 755,621 756,620 756,619 757,618 757,615 758,614 758,612 759,611 759,607 760,606 760,605 761,604 761,598 762,597 762,592 763,591 763,588 764,587 764,585 765,584 765,581 766,580 766,576 767,575 767,568 768,567 768,565 769,564 769,549 770,548 770,542 771,541 771,520 772,519 772,461 771,460 771,452 770,451 770,449 771,448 771,447 773,445 776,445 777,444 778,444 780,442 781,442 783,440 784,440 785,439 786,439 790,435 791,435 792,434 792,433 798,427 798,425 800,423 800,422 801,421 801,419 802,418 802,416 803,415 803,411 804,410 804,408 805,407 805,393 804,392 804,389 803,388 803,383 802,382 802,378 801,377 801,374 800,373 800,370 799,369 799,368 798,367 798,365 796,363 796,360 794,358 794,353 792,351 792,350 791,349 791,347 790,346 790,345 789,344 789,343 787,341 787,339 786,338 786,336 783,333 783,332 782,331 782,330 781,329 781,328 779,326 779,324 777,322 777,321 776,320 776,319 775,318 775,317 773,315 773,314 771,312 771,311 770,310 770,309 768,307 768,306 766,304 766,303 764,301 764,300 763,299 763,298 762,297 762,296 757,291 757,290 755,288 755,287 725,257 724,257 716,249 715,249 714,248 713,248 710,245 709,245 706,242 705,242 701,238 700,238 698,236 697,236 695,234 694,234 692,232 691,232 689,230 687,230 685,228 684,228 683,227 682,227 681,226 680,226 678,224 677,224 675,222 674,222 673,221 672,221 671,220 670,220 669,219 668,219 667,218 665,218 664,217 661,217 660,216 659,216 658,215 657,215 655,213 654,213 653,212 651,212 650,211 649,211 645,207 644,207 643,206 638,206 637,205 635,205 634,204 632,204 631,203 628,203 627,202 626,202 625,201 623,201 622,200 620,200 619,199 617,199 616,198 614,198 613,197 610,197 609,196 607,196 606,195 602,195 601,194 598,194 597,193 593,193 592,192 589,192 588,191 584,191 583,190 579,190 578,189 572,189 571,188 567,188 566,187 560,187 558,185 556,185 555,184 556,183 556,181 557,180 557,179 558,178 558,176 559,175 560,175 561,174 561,172 564,169 564,168 575,157 577,157 579,155 579,154 580,153 582,153 586,149 587,149 589,147 592,147 592,146 593,145 595,145 605,135 605,134 606,133 606,131 607,130 607,127 608,126 608,123 609,122 609,121 608,120 608,119 609,118 609,115 608,114 608,111 607,110 607,109 605,107 605,106 603,104 603,103 602,102 602,101 597,96 597,95 595,93 594,93 589,88 588,88 584,84 582,84 579,81 577,81 575,79 574,79 573,78 572,78 571,77 570,77 569,76 568,76 567,75 566,75 565,74 563,74 561,72 558,72 556,70 Z M 0,31 0,33 1,33 1,32 Z M 0,0 0,3 1,2 1,1 Z " fill="black" />
</svg>